<?xml version="1.0" encoding="UTF-8" standalone="no"?>
<!-- Generator: Adobe Illustrator 23.0.1, SVG Export Plug-In . SVG Version: 6.00 Build 0)  -->

<svg
   version="1.1"
   id="Layer_1"
   x="0px"
   y="0px"
   viewBox="0 0 174.9 174.9"
   style="enable-background:new 0 0 174.9 174.9;"
   xml:space="preserve"
   sodipodi:docname="favicon.svg"
   inkscape:version="1.3.2 (1:1.3.2+202311252150+091e20ef0f)"
   xmlns:inkscape="http://www.inkscape.org/namespaces/inkscape"
   xmlns:sodipodi="http://sodipodi.sourceforge.net/DTD/sodipodi-0.dtd"
   xmlns="http://www.w3.org/2000/svg"
   xmlns:svg="http://www.w3.org/2000/svg"><defs
   id="defs1">
	
</defs><sodipodi:namedview
   id="namedview1"
   pagecolor="#ffffff"
   bordercolor="#000000"
   borderopacity="0.25"
   inkscape:showpageshadow="2"
   inkscape:pageopacity="0.0"
   inkscape:pagecheckerboard="0"
   inkscape:deskcolor="#d1d1d1"
   inkscape:zoom="1.7610064"
   inkscape:cx="88.017852"
   inkscape:cy="87.449995"
   inkscape:window-width="1850"
   inkscape:window-height="1016"
   inkscape:window-x="70"
   inkscape:window-y="433"
   inkscape:window-maximized="1"
   inkscape:current-layer="Layer_1" />
<style
   type="text/css"
   id="style1">
	.st0{fill:#FFFFFF;}
</style>
<path
   class="st0"
   d="m 87.5,7.5 c -44.2,0 -80,35.8 -80,80 0,44.2 35.8,80 80,80 44.2,0 80,-35.8 80,-80 0,-44.2 -35.8,-80 -80,-80 z m -11.8,141 -2.8,-1.7 -7.4,-4.4 -2.7,-1.6 L 78.8,114 39,48.6 42.1,46.8 v 0 l 3.4,-2 0.4,-0.2 6,-3.7 17.9,29.4 23.5,-15.8 1.9,2.9 v 0 l 2.8,4.2 3.6,5.3 -24.1,16.1 10,16.4 35.1,-59 3.1,1.8 7.4,4.4 2.4,1.4 z"
   id="path1"
   style="fill:#00a276;fill-opacity:1" />
</svg>
