<svg xmlns="http://www.w3.org/2000/svg" viewBox="0 0 467.19 160"><defs><style>.cls-1{fill:#fff;}</style></defs><title>Isologotip</title><g id="Layer_2" data-name="Layer 2"><g id="Layer_3" data-name="Layer 3"><g id="Isologotip_blanc:_v1"><g id="Logotip"><path class="cls-1" d="M214.56,27.47H199.92V73.38h-8.06V27.47H177.23V20.23h37.33Z"/><path class="cls-1" d="M261.44,73.38h-8.06V50.16H231.8V73.38h-8.06V20.23h8.06V42.92h21.58V20.23h8.06Z"/><path class="cls-1" d="M309.29,73.38h-34V20.23h34v7.24h-25.9V43h22.1v7.16h-22.1v16h25.9Z"/><path class="cls-1" d="M356.63,46.8a83.37,83.37,0,0,1-.6,12.55,16,16,0,0,1-4.48,8.81,20.12,20.12,0,0,1-28,0A16.4,16.4,0,0,1,319,59.35a84.3,84.3,0,0,1-.6-12.55,84.23,84.23,0,0,1,.6-12.54,16.4,16.4,0,0,1,4.55-8.81,20.12,20.12,0,0,1,28,0A16,16,0,0,1,356,34.26,83.3,83.3,0,0,1,356.63,46.8Zm-8.07,0q0-6.78-.22-8.66-.52-5.3-2.91-7.83a11.17,11.17,0,0,0-15.83,0q-2.39,2.54-2.91,7.83-.22,1.88-.23,8.66t.23,8.66q.53,5.31,2.91,7.84a11.17,11.17,0,0,0,15.83,0q2.38-2.53,2.91-7.84Q348.57,53.6,348.56,46.8Z"/><path class="cls-1" d="M407.32,73.38h-9.41L386.71,51H376.63V73.38h-8.06V20.23h20.61q7.45,0,12,4.33a14.82,14.82,0,0,1,4.52,11.2,14,14,0,0,1-10.61,14.11Zm-9.71-37.51a7.92,7.92,0,0,0-2.46-6.15,9.36,9.36,0,0,0-6.57-2.25H376.63V44.19h11.95A9.48,9.48,0,0,0,395.15,42,7.79,7.79,0,0,0,397.61,35.87Z"/><path class="cls-1" d="M450.77,20.23l-15.9,31.28V73.38H426.8V51.51L410.9,20.23h8.81l11.13,23.36L442,20.23Z"/><path class="cls-1" d="M215,112.82a87.2,87.2,0,0,1-.52,11.72,18.15,18.15,0,0,1-4.85,10.23q-5,5-13.74,5H177.23V86.62h18.66q8.73,0,13.74,5a17.81,17.81,0,0,1,4.85,9.85A81.23,81.23,0,0,1,215,112.82Zm-8.06,0a76.57,76.57,0,0,0-.37-9.26,11.55,11.55,0,0,0-2.47-6.12q-3.21-3.59-9-3.58h-9.78v38.67h9.78q5.82,0,9-3.58c1.25-1.4,2.07-3.56,2.47-6.5A84.54,84.54,0,0,0,206.94,112.82Z"/><path class="cls-1" d="M235,139.77H227V86.62H235Z"/><path class="cls-1" d="M283.69,86.62l-17.62,53.15H259.8L242.33,86.62h8.36l12.24,38.67,12.24-38.67Z"/><path class="cls-1" d="M299.06,139.77H291V86.62h8.06Z"/><path class="cls-1" d="M346.25,124.62A13.78,13.78,0,0,1,341,136q-5.31,4.19-13.81,4.18-11.88,0-18.82-7l5.38-5.3q5.07,5.08,13.58,5.08,5.24,0,8.1-2.13a7,7,0,0,0,2.88-6,7.16,7.16,0,0,0-2.09-5.52q-1.8-1.65-5.82-2.24l-6.28-.9c-4.38-.65-7.74-2.06-10.07-4.26q-3.88-3.65-3.89-10.15a14.49,14.49,0,0,1,4.78-11.31q4.78-4.29,13-4.29,10,0,16.5,6l-5.15,5.07q-4.34-4.1-11.57-4.1a10.3,10.3,0,0,0-7.13,2.31,7.64,7.64,0,0,0-2.58,6,6.33,6.33,0,0,0,2.06,5,11.22,11.22,0,0,0,5.93,2.42l6.05.9q6.57,1,9.93,4Q346.24,117.52,346.25,124.62Z"/><path class="cls-1" d="M365.06,139.77H357V86.62h8.06Z"/><path class="cls-1" d="M415.23,113.19a83.37,83.37,0,0,1-.6,12.55,16,16,0,0,1-4.48,8.81,20.11,20.11,0,0,1-28,0,16.41,16.41,0,0,1-4.56-8.81,84.3,84.3,0,0,1-.6-12.55,84.23,84.23,0,0,1,.6-12.54,16.41,16.41,0,0,1,4.56-8.81,20.11,20.11,0,0,1,28,0,16,16,0,0,1,4.48,8.81A83.3,83.3,0,0,1,415.23,113.19Zm-8.06,0c0-4.53-.08-7.41-.23-8.66q-.53-5.3-2.91-7.84a11.19,11.19,0,0,0-15.83,0q-2.38,2.55-2.91,7.84c-.15,1.25-.22,4.13-.22,8.66s.07,7.42.22,8.66q.52,5.31,2.91,7.84a11.17,11.17,0,0,0,15.83,0q2.39-2.53,2.91-7.84Q407.17,120,407.17,113.19Z"/><path class="cls-1" d="M467.19,139.77H459.8l-24.56-37.4v37.4h-8.07V86.62h7.39l24.57,37.32V86.62h8.06Z"/></g><g id="Isotip"><path class="cls-1" d="M80,0a80,80,0,1,0,80,80A80,80,0,0,0,80,0ZM65.4,139.37,58,134.94l17-28.27L34.49,39.19l7.39-4.42L61.37,67.25,87.61,49.76l4.78,7.16L65.8,74.64,80,98.3l38.12-63.53,7.39,4.42Z"/></g></g></g></g></svg>